<svg xmlns="http://www.w3.org/2000/svg" xmlns:xlink="http://www.w3.org/1999/xlink" contentStyleType="text/css" data-diagram-type="DESCRIPTION" height="1144px" preserveAspectRatio="none" style="width:410px;height:1144px;background:#FFFFFF;" version="1.1" viewBox="0 0 410 1144" width="410px" zoomAndPan="magnify"><?plantuml 1.2026.3beta5?><defs/><g><!--cluster ??????????????--><g class="cluster" data-qualified-name=".............." data-source-line="37" id="ent0005"><rect fill="#FDFEFE" height="1118" rx="3" ry="3" style="stroke:#7F8C8D;stroke-width:1.5;" width="257.22" x="139" y="12"/><text fill="#2C3E50" font-family="'Arial, sans-serif'" font-size="14" font-weight="700" lengthAdjust="spacing" textLength="195.9991" x="169.6104" y="26.9951">&#26657;&#22253;&#26234;&#24935;&#39184;&#39278;&#26680;&#24515;&#31995;&#32479;&#21151;&#33021;&#30697;&#38453;</text></g><!--entity UC1--><g class="entity" data-qualified-name="...............UC1" data-source-line="38" id="ent0006"><ellipse cx="267.6131" cy="291.9986" fill="#F9EBEA" rx="83.9931" ry="19.1986" style="stroke:#922B21;stroke-width:1.2;"/><text fill="#641E16" font-family="'Arial, sans-serif'" font-size="14" lengthAdjust="spacing" textLength="139.9994" x="197.6134" y="296.6471">&#32467;&#26500;&#21270;&#33756;&#21697;&#28689;&#24067;&#27969;&#26816;&#32034;</text></g><!--entity UC2--><g class="entity" data-qualified-name="...............UC2" data-source-line="39" id="ent0007"><ellipse cx="267.6099" cy="217.998" fill="#F9EBEA" rx="87.7399" ry="19.948" style="stroke:#922B21;stroke-width:1.2;"/><text fill="#641E16" font-family="'Arial, sans-serif'" font-size="14" lengthAdjust="spacing" textLength="148.6059" x="193.307" y="222.6464">&#38750;&#32467;&#26500;&#35821;&#20041; AI &#36741;&#21161;&#28857;&#39184;</text></g><!--entity UC3--><g class="entity" data-qualified-name="...............UC3" data-source-line="40" id="ent0008"><ellipse cx="267.6141" cy="143.0028" fill="#F9EBEA" rx="90.1141" ry="20.4228" style="stroke:#922B21;stroke-width:1.2;"/><text fill="#641E16" font-family="'Arial, sans-serif'" font-size="14" lengthAdjust="spacing" textLength="153.9993" x="190.6145" y="147.6513">&#19968;&#33268;&#24615;&#36141;&#29289;&#36710;&#19982;&#24182;&#21333;&#32467;&#31639;</text></g><!--entity UC4--><g class="entity" data-qualified-name="...............UC4" data-source-line="41" id="ent0009"><ellipse cx="267.6141" cy="67.0028" fill="#F9EBEA" rx="90.1141" ry="20.4228" style="stroke:#922B21;stroke-width:1.2;"/><text fill="#641E16" font-family="'Arial, sans-serif'" font-size="14" lengthAdjust="spacing" textLength="153.9993" x="190.6145" y="71.6513">&#36164;&#37329;&#27969;&#27700;&#35760;&#24405;&#19982;&#36870;&#21521;&#36861;&#28335;</text></g><!--entity UC5--><g class="entity" data-qualified-name="...............UC5" data-source-line="42" id="ent0010"><ellipse cx="267.6138" cy="369.0008" fill="#F9EBEA" rx="102.7038" ry="22.9408" style="stroke:#922B21;stroke-width:1.2;"/><text fill="#641E16" font-family="'Arial, sans-serif'" font-size="14" lengthAdjust="spacing" textLength="181.9992" x="176.6142" y="373.6492">&#20840;&#21608;&#26399;&#23653;&#32422;&#24555;&#29031;&#19982;&#28385;&#24847;&#24230;&#22238;&#20256;</text></g><!--entity MC1--><g class="entity" data-qualified-name="...............MC1" data-source-line="44" id="ent0011"><ellipse cx="267.6088" cy="693.0018" fill="#F9EBEA" rx="96.3588" ry="21.6718" style="stroke:#922B21;stroke-width:1.2;"/><text fill="#641E16" font-family="'Arial, sans-serif'" font-size="14" lengthAdjust="spacing" textLength="167.9993" x="183.6092" y="697.6502">&#21830;&#25143;&#22495;&#25968;&#23383;&#31435;&#38754;&#32500;&#25252;&#19982;&#38381;&#24215;</text></g><!--entity MC2--><g class="entity" data-qualified-name="...............MC2" data-source-line="45" id="ent0012"><ellipse cx="267.6051" cy="613.995" fill="#F9EBEA" rx="100.5251" ry="22.505" style="stroke:#922B21;stroke-width:1.2;"/><text fill="#641E16" font-family="'Arial, sans-serif'" font-size="14" lengthAdjust="spacing" textLength="177.2142" x="178.998" y="618.6435">&#22810;&#27169;&#24577; SKU &#26641;&#35268;&#26684;&#21160;&#24577;&#25554;&#25300;</text></g><!--entity MC3--><g class="entity" data-qualified-name="...............MC3" data-source-line="46" id="ent0013"><ellipse cx="267.6102" cy="531.998" fill="#F9EBEA" rx="108.7402" ry="24.148" style="stroke:#922B21;stroke-width:1.2;"/><text fill="#641E16" font-family="'Arial, sans-serif'" font-size="14" lengthAdjust="spacing" textLength="195.1519" x="170.0343" y="536.6465">WebSocket &#21452;&#24037;&#21363;&#26102;&#35746;&#21333;&#25773;&#25253;</text></g><!--entity MC4--><g class="entity" data-qualified-name="...............MC4" data-source-line="47" id="ent0014"><ellipse cx="267.6138" cy="450.0008" fill="#F9EBEA" rx="102.7038" ry="22.9408" style="stroke:#922B21;stroke-width:1.2;"/><text fill="#641E16" font-family="'Arial, sans-serif'" font-size="14" lengthAdjust="spacing" textLength="181.9992" x="176.6142" y="454.6492">&#23458;&#35785;&#24037;&#21333;&#21453;&#39304;&#19982;&#36127;&#38754;&#33286;&#24773;&#22788;&#29702;</text></g><!--entity MC5--><g class="entity" data-qualified-name="...............MC5" data-source-line="48" id="ent0015"><ellipse cx="267.6094" cy="775.0019" fill="#F9EBEA" rx="112.6094" ry="24.9219" style="stroke:#922B21;stroke-width:1.2;"/><text fill="#641E16" font-family="'Arial, sans-serif'" font-size="14" lengthAdjust="spacing" textLength="203.5121" x="165.8533" y="779.6503">&#26102;&#24207;&#19994;&#21153;&#37327;&#24230;&#37327;&#19982; ECharts &#23548;&#20986;</text></g><!--entity AD1--><g class="entity" data-qualified-name="...............AD1" data-source-line="50" id="ent0016"><ellipse cx="267.6088" cy="1092.0018" fill="#F9EBEA" rx="96.3588" ry="21.6718" style="stroke:#922B21;stroke-width:1.2;"/><text fill="#641E16" font-family="'Arial, sans-serif'" font-size="14" lengthAdjust="spacing" textLength="167.9993" x="183.6092" y="1096.6502">&#20837;&#39547;&#21830;&#25143;&#29983;&#21629;&#21608;&#26399;&#19968;&#31080;&#21542;&#20915;</text></g><!--entity AD2--><g class="entity" data-qualified-name="...............AD2" data-source-line="51" id="ent0017"><ellipse cx="267.6141" cy="1015.0028" fill="#F9EBEA" rx="90.1141" ry="20.4228" style="stroke:#922B21;stroke-width:1.2;"/><text fill="#641E16" font-family="'Arial, sans-serif'" font-size="14" lengthAdjust="spacing" textLength="153.9993" x="190.6145" y="1019.6513">&#24179;&#21488;&#20840;&#39057;&#27573;&#24191;&#25773;&#28040;&#24687;&#20998;&#21457;</text></g><!--entity AD3--><g class="entity" data-qualified-name="...............AD3" data-source-line="52" id="ent0018"><ellipse cx="267.6088" cy="938.0018" fill="#F9EBEA" rx="96.3588" ry="21.6718" style="stroke:#922B21;stroke-width:1.2;"/><text fill="#641E16" font-family="'Arial, sans-serif'" font-size="14" lengthAdjust="spacing" textLength="167.9993" x="183.6092" y="942.6502">&#23439;&#35266;&#29992;&#25143;&#27963;&#36291;&#24230;&#25968;&#25454;&#35266;&#27979;&#30424;</text></g><!--entity AD4--><g class="entity" data-qualified-name="...............AD4" data-source-line="53" id="ent0019"><ellipse cx="267.609" cy="858.0018" fill="#F9EBEA" rx="105.259" ry="23.4518" style="stroke:#922B21;stroke-width:1.2;"/><text fill="#641E16" font-family="'Arial, sans-serif'" font-size="14" lengthAdjust="spacing" textLength="187.5844" x="173.8168" y="862.6502">&#39640;&#32454;&#31890;&#24230; RBAC &#36816;&#33829;&#36234;&#26435;&#24178;&#39044;</text></g><!--entity user--><g class="entity" data-qualified-name="user" data-source-line="33" id="ent0002"><ellipse cx="52.9998" cy="188.35" fill="#FFFFFF" rx="8" ry="8" style="stroke:#2C3E50;stroke-width:1;"/><path d="M52.9998,196.35 L52.9998,223.35 M39.9998,204.35 L65.9998,204.35 M52.9998,223.35 L39.9998,238.35 M52.9998,223.35 L65.9998,238.35" fill="none" style="stroke:#2C3E50;stroke-width:1;"/><text fill="#2C3E50" font-family="'Arial, sans-serif'" font-size="14" lengthAdjust="spacing" textLength="83.9996" x="11" y="253.3451">&#22312;&#26657;&#24072;&#29983;&#32456;&#31471;</text></g><!--entity merchant--><g class="entity" data-qualified-name="merchant" data-source-line="34" id="ent0003"><ellipse cx="52.9998" cy="584.35" fill="#FFFFFF" rx="8" ry="8" style="stroke:#2C3E50;stroke-width:1;"/><path d="M52.9998,592.35 L52.9998,619.35 M39.9998,600.35 L65.9998,600.35 M52.9998,619.35 L39.9998,634.35 M52.9998,619.35 L65.9998,634.35" fill="none" style="stroke:#2C3E50;stroke-width:1;"/><text fill="#2C3E50" font-family="'Arial, sans-serif'" font-size="14" lengthAdjust="spacing" textLength="83.9996" x="11" y="649.3451">&#39547;&#22330;&#21830;&#25143;&#32456;&#31471;</text></g><!--entity admin--><g class="entity" data-qualified-name="admin" data-source-line="35" id="ent0004"><ellipse cx="52.9998" cy="946.35" fill="#FFFFFF" rx="8" ry="8" style="stroke:#2C3E50;stroke-width:1;"/><path d="M52.9998,954.35 L52.9998,981.35 M39.9998,962.35 L65.9998,962.35 M52.9998,981.35 L39.9998,996.35 M52.9998,981.35 L65.9998,996.35" fill="none" style="stroke:#2C3E50;stroke-width:1;"/><text fill="#2C3E50" font-family="'Arial, sans-serif'" font-size="14" lengthAdjust="spacing" textLength="83.9996" x="11" y="1011.3451">&#31995;&#32479;&#36229;&#32423;&#36229;&#31649;</text></g><!--link user to UC1--><g class="link" data-entity-1="ent0002" data-entity-2="ent0006" data-link-type="dependency" data-source-line="56" id="lnk20"><path d="M95.36,239.57 C106.73,245.03 119.19,250.59 131,255 C155.46,264.13 177.3601,270.5915 201.3201,276.7715" fill="none" id="user-to-UC1" style="stroke:#7F8C8D;stroke-width:1.2;"/><polygon fill="#7F8C8D" points="207.13,278.27,199.4142,272.149,202.2885,277.0212,197.4162,279.8954,207.13,278.27" style="stroke:#7F8C8D;stroke-width:1.2;"/></g><!--link user to UC2--><g class="link" data-entity-1="ent0002" data-entity-2="ent0007" data-link-type="dependency" data-source-line="57" id="lnk21"><path d="M95.5,218 C119.43,218 144.44,218 173.47,218" fill="none" id="user-to-UC2" style="stroke:#7F8C8D;stroke-width:1.2;"/><polygon fill="#7F8C8D" points="179.47,218,170.47,214,174.47,218,170.47,222,179.47,218" style="stroke:#7F8C8D;stroke-width:1.2;"/></g><!--link user to UC3--><g class="link" data-entity-1="ent0002" data-entity-2="ent0008" data-link-type="dependency" data-source-line="58" id="lnk22"><path d="M95.38,196.48 C106.75,191.02 119.2,185.45 131,181 C154.56,172.11 175.3252,165.7856 198.6452,159.5256" fill="none" id="user-to-UC3" style="stroke:#7F8C8D;stroke-width:1.2;"/><polygon fill="#7F8C8D" points="204.44,157.97,194.7107,156.4401,199.611,159.2663,196.7848,164.1666,204.44,157.97" style="stroke:#7F8C8D;stroke-width:1.2;"/></g><!--link user to UC4--><g class="link" data-entity-1="ent0002" data-entity-2="ent0009" data-link-type="dependency" data-source-line="59" id="lnk23"><path d="M71.75,178.93 C84.83,154.32 104.87,123.77 131,105 C148.67,92.3 164.6567,85.4013 185.5467,79.7713" fill="none" id="user-to-UC4" style="stroke:#7F8C8D;stroke-width:1.2;"/><polygon fill="#7F8C8D" points="191.34,78.21,181.6092,76.6898,186.5123,79.5111,183.6909,84.4142,191.34,78.21" style="stroke:#7F8C8D;stroke-width:1.2;"/></g><!--link user to UC5--><g class="link" data-entity-1="ent0002" data-entity-2="ent0010" data-link-type="dependency" data-source-line="60" id="lnk24"><path d="M72.44,257.06 C85.62,281.05 105.52,310.6 131,329 C147.12,340.64 160.8751,347.1563 179.9951,353.0363" fill="none" id="user-to-UC5" style="stroke:#7F8C8D;stroke-width:1.2;"/><polygon fill="#7F8C8D" points="185.73,354.8,178.3034,348.3312,180.9509,353.3303,175.9518,355.9778,185.73,354.8" style="stroke:#7F8C8D;stroke-width:1.2;"/></g><!--link merchant to MC1--><g class="link" data-entity-1="ent0003" data-entity-2="ent0011" data-link-type="dependency" data-source-line="62" id="lnk25"><path d="M95.25,637.35 C106.62,643.25 119.11,649.26 131,654 C153.3,662.9 172.6184,669.0959 195.1084,675.3359" fill="none" id="merchant-to-MC1" style="stroke:#7F8C8D;stroke-width:1.2;"/><polygon fill="#7F8C8D" points="200.89,676.94,193.287,670.6794,196.072,675.6032,191.1482,678.3882,200.89,676.94" style="stroke:#7F8C8D;stroke-width:1.2;"/></g><!--link merchant to MC2--><g class="link" data-entity-1="ent0003" data-entity-2="ent0012" data-link-type="dependency" data-source-line="63" id="lnk26"><path d="M95.5,614 C115.92,614 135.5,614 160.62,614" fill="none" id="merchant-to-MC2" style="stroke:#7F8C8D;stroke-width:1.2;"/><polygon fill="#7F8C8D" points="166.62,614,157.62,610,161.62,614,157.62,618,166.62,614" style="stroke:#7F8C8D;stroke-width:1.2;"/></g><!--link merchant to MC3--><g class="link" data-entity-1="ent0003" data-entity-2="ent0013" data-link-type="dependency" data-source-line="64" id="lnk27"><path d="M95.32,590.81 C106.69,584.91 119.16,578.86 131,574 C152.2,565.29 170.1596,559.1158 191.7296,552.5558" fill="none" id="merchant-to-MC3" style="stroke:#7F8C8D;stroke-width:1.2;"/><polygon fill="#7F8C8D" points="197.47,550.81,187.6955,549.6018,192.6863,552.2648,190.0233,557.2556,197.47,550.81" style="stroke:#7F8C8D;stroke-width:1.2;"/></g><!--link merchant to MC4--><g class="link" data-entity-1="ent0003" data-entity-2="ent0014" data-link-type="dependency" data-source-line="65" id="lnk28"><path d="M69.18,575.1 C81.81,547.57 102.37,511.8 131,490 C146.62,478.1 159.9914,471.5141 178.8714,465.6341" fill="none" id="merchant-to-MC4" style="stroke:#7F8C8D;stroke-width:1.2;"/><polygon fill="#7F8C8D" points="184.6,463.85,174.8177,462.7071,179.8262,465.3368,177.1965,470.3453,184.6,463.85" style="stroke:#7F8C8D;stroke-width:1.2;"/></g><!--link merchant to MC5--><g class="link" data-entity-1="ent0003" data-entity-2="ent0015" data-link-type="dependency" data-source-line="66" id="lnk29"><path d="M70.87,653.08 C83.85,678.88 104.12,711.57 131,732 C146.24,743.58 159.0007,750.1545 177.3107,756.3945" fill="none" id="merchant-to-MC5" style="stroke:#7F8C8D;stroke-width:1.2;"/><polygon fill="#7F8C8D" points="182.99,758.33,175.7614,751.6406,178.2573,756.7171,173.1808,759.213,182.99,758.33" style="stroke:#7F8C8D;stroke-width:1.2;"/></g><!--link admin to AD1--><g class="link" data-entity-1="ent0004" data-entity-2="ent0016" data-link-type="dependency" data-source-line="68" id="lnk30"><path d="M85.66,1015.04 C98.48,1028.71 114.23,1043.11 131,1053 C149.78,1064.07 166.1122,1070.5424 186.9722,1076.3824" fill="none" id="admin-to-AD1" style="stroke:#7F8C8D;stroke-width:1.2;"/><polygon fill="#7F8C8D" points="192.75,1078,185.1616,1071.7217,187.9351,1076.652,183.0049,1079.4255,192.75,1078" style="stroke:#7F8C8D;stroke-width:1.2;"/></g><!--link admin to AD2--><g class="link" data-entity-1="ent0004" data-entity-2="ent0017" data-link-type="dependency" data-source-line="69" id="lnk31"><path d="M95.5,983.61 C124.14,988.87 157.0286,994.8969 190.4286,1001.0269" fill="none" id="admin-to-AD2" style="stroke:#7F8C8D;stroke-width:1.2;"/><polygon fill="#7F8C8D" points="196.33,1002.11,188.1999,996.5511,191.4121,1001.2074,186.7558,1004.4196,196.33,1002.11" style="stroke:#7F8C8D;stroke-width:1.2;"/></g><!--link admin to AD3--><g class="link" data-entity-1="ent0004" data-entity-2="ent0018" data-link-type="dependency" data-source-line="70" id="lnk32"><path d="M95.5,968.58 C122.69,963.72 153.1238,958.2868 185.3138,952.5268" fill="none" id="admin-to-AD3" style="stroke:#7F8C8D;stroke-width:1.2;"/><polygon fill="#7F8C8D" points="191.22,951.47,181.6562,949.1178,186.2982,952.3507,183.0653,956.9927,191.22,951.47" style="stroke:#7F8C8D;stroke-width:1.2;"/></g><!--link admin to AD4--><g class="link" data-entity-1="ent0004" data-entity-2="ent0019" data-link-type="dependency" data-source-line="71" id="lnk33"><path d="M85.73,937.08 C98.57,923.42 114.29,909 131,899 C148.94,888.26 164.1673,881.8683 184.1873,875.8083" fill="none" id="admin-to-AD4" style="stroke:#7F8C8D;stroke-width:1.2;"/><polygon fill="#7F8C8D" points="189.93,874.07,180.1571,872.849,185.1444,875.5186,182.4748,880.5059,189.93,874.07" style="stroke:#7F8C8D;stroke-width:1.2;"/></g><?plantuml-src ZLDRR-9657xdLqpfQrCLGxAxBvK80MbLjG_ThlhiWXEi43ko7QrMLIMoN4B8fa0sDEdcmgKX44L0TWE4IoX_XZCp_XST6qUrYIAj7ooTRyvtlZFVEVEL5XKs1BGPuqN9fQwBqYQly1ie8gpoMp4j94lQJpmxT_iLaOzzWrHUKXTKGH5NtRPiDSf7v3UYj8PM-PWgs4uKUKkAX6L54XIqPCDZeYHeRpUPi1nxwx8Ty65DLj3lBiI-PJwylcPM2CWnXduTCh_PcQn41CN2kO0tkFYTYHiTEz4_xEMtL27CgyAJ0Y-2oq7_Ou4N7BVCUMpuBr4nl2u9geeyttBpmai-Jz2pv1HMXB36IsknfwLNGi5GyB7qiz3pmFEL9wGNl-JElAB8RopPnqMTDs74cB2g8Kr6YhWMrL14D3eNPSarcumRJXkuN85-XXoMo2X3hjjknAk6iSf3YdurWjCX5DCuSsTBsH2KS9INj8SqSZiYenBjfSYmRlnR5JEDZsomLNJzRvZRq3jfuh-7E5NNB_9whONBVPWaPWKWMwA9CIbTwSTTjtdDXo6xoUW3Fa_2-xzexXG-R9Du0Ve9tDt6_yH9fsgglGvux0pzx7n6ektcTB2B_2yH_JS5sIloRi2aBGfdfqpxSRhJmV4wxJJ9xXKTNqxxVyAW1_j5LegqZYoIrqwYtQI-Kp1QkUdGrWsCYuoanzEGBz3960_R5ibd9q6g0OK6FYt1fnePNiBacgJgZ8T75PpC0KDEpgVtPOjgx8Q3RSu3IYLSl87c4RdUqy-gPDJ1sGj3-wW9mrchFpejWOkFk571yMtqweVN29SBj9x4vNl8DXY6SmTuxz2YEMpvLVZjbHnU5pG4kVTmLuFzMtpKewqgymKVD76sPh4Sla2hIjkxPdeHSllwPORrHZibrYhDf74Y1HT9aazRL8Sxh3eCSzF-HyXMz1t33lPdR1GCH7b5Kn6qxs5dQ54VkPEg6Mixszd34XJ6CwlPT4cj0VbBID-QLF-Aqvt1BUHks6JqQW6tkZ2O69VhPV1s6p9fo1Ki4kUyPOxMtv731XF3dH6zIx1ksLZmVelXkBj7JeujdiCT_VgOZDBaym5BHpyl-mE8Jl8qNwEzB3vBmE2pNarQF9_nb8r7YHOMlZUtt1Pmzi1h3tpsOD7bUdYp9c8inXp0pGFUUS0t3x2gvXCtGyDDUyGv8gyZylq7?></g></svg>